<svg width="406" height="180" viewBox="0 0 406 180" xmlns="http://www.w3.org/2000/svg"><path d="M82.123 133.562H10.358c-6.347 0-10.957-5.144-10.295-11.49a12.38 12.38 0 011.432-4.582l33.908-62.862c3.139-5.818 1.179-12.587-4.378-15.118a10.803 10.803 0 00-4.485-.954H11.883c-6.348 0-10.957-5.144-10.295-11.49L3.213 11.49C3.874 5.144 9.556 0 15.903 0H90.42c6.347 0 10.956 5.144 10.295 11.49a12.382 12.382 0 01-1.438 4.593L65.185 79.136c-3.145 5.816-1.192 12.587 4.361 15.124a10.79 10.79 0 004.496.959h12.08c6.347 0 10.957 5.144 10.295 11.49l-1.603 15.364c-.661 6.345-6.343 11.49-12.691 11.49zM133.742 180c-3.603 0-10.382-.517-20.337-1.552-4.165-.433-6.834-4.195-5.962-8.404.062-.297.14-.593.237-.885l5.866-17.901c.944-2.882 3.87-4.806 6.765-4.45 4.415.542 7.673.813 9.775.813 11.223 0 19.448-6.674 24.676-20.023-6.636 3.692-13.15 5.538-19.542 5.538-8.808 0-15.815-3.302-21.022-9.905-5.207-6.604-7.255-15.231-6.144-25.882l5.999-57.52c.662-6.345 6.344-11.489 12.691-11.489h13.665c6.347 0 10.957 5.144 10.295 11.49l-5.066 48.572c-.607 5.823 1.433 8.734 6.121 8.734 4.546 0 7.152-3.195 7.819-9.586l4.977-47.72c.661-6.346 6.344-11.49 12.691-11.49h13.665c6.347 0 10.957 5.144 10.295 11.49l-8.687 83.294c-1.836 17.61-8.647 31.491-20.431 41.645C160.303 174.923 147.52 180 133.742 180zm99.694-46.438h-13.665c-6.347 0-10.957-5.144-10.295-11.49l5.643-54.106c1.318-12.639 6.663-23.36 16.033-32.165 9.371-8.805 20.094-13.208 32.169-13.208 13.353 0 23.496 4.225 30.428 12.675 6.932 8.45 9.606 20.272 8.021 35.467l-5.354 51.338c-.662 6.345-6.344 11.49-12.691 11.49h-13.452c-6.347 0-10.957-5.145-10.295-11.49l5.732-54.959c.577-5.538-1.478-8.308-6.166-8.308-4.546 0-7.107 2.77-7.685 8.308l-5.732 54.959c-.661 6.345-6.343 11.49-12.691 11.49zm103.788 0h-13.665c-6.348 0-10.957-5.144-10.295-11.49l5.643-54.106c1.318-12.639 6.662-23.36 16.033-32.165 9.37-8.805 20.093-13.208 32.168-13.208 13.354 0 23.497 4.225 30.429 12.675 6.932 8.45 9.605 20.272 8.02 35.467l-5.353 51.338c-.662 6.345-6.344 11.49-12.692 11.49h-13.451c-6.348 0-10.957-5.145-10.295-11.49l5.731-54.959c.578-5.538-1.477-8.308-6.165-8.308-4.546 0-7.108 2.77-7.685 8.308l-5.732 54.959c-.662 6.345-6.344 11.49-12.691 11.49z" fill="#FFF"/></svg>